<svg width="106" height="60" viewBox="0 0 106 60" fill="#AFB1B8" xmlns="http://www.w3.org/2000/svg">
  <path d="M36.4062 49.1014C36.4221 49.1018 36.4377 49.1049 36.4523 49.1106C36.4668 49.1163 36.4798 49.1245 36.4907 49.1346L36.7088 49.3431C36.5395 49.5118 36.3302 49.6468 36.0953 49.7388C35.8203 49.8391 35.5238 49.8876 35.2256 49.8809C34.9454 49.8859 34.6669 49.8408 34.4077 49.7482C34.1738 49.6633 33.9636 49.5356 33.7915 49.3739C33.6158 49.2062 33.4804 49.0096 33.3934 48.7958C33.2981 48.5574 33.2511 48.3065 33.2544 48.0542C33.2505 47.8003 33.3013 47.548 33.4043 47.3103C33.4996 47.0951 33.6432 46.8986 33.8269 46.7322C34.0131 46.5691 34.2358 46.4409 34.4813 46.3555C34.7498 46.265 35.0358 46.22 35.3237 46.2228C35.5913 46.2172 35.8574 46.2583 36.1062 46.3436C36.3222 46.4251 36.5205 46.538 36.6924 46.6777L36.5098 46.9004C36.4971 46.9161 36.4815 46.9297 36.4634 46.9407C36.4419 46.9535 36.4158 46.9594 36.3898 46.9573C36.3615 46.9556 36.3342 46.9474 36.3107 46.9336L36.2126 46.8744L36.0763 46.7985C36.0174 46.7704 35.9564 46.7458 35.8936 46.7251C35.8127 46.6999 35.7298 46.6801 35.6455 46.6659C35.5385 46.6487 35.4298 46.6408 35.321 46.6422C35.1136 46.6399 34.9078 46.6737 34.7157 46.7417C34.5366 46.8046 34.3749 46.8999 34.2413 47.0212C34.1054 47.1503 34.0006 47.3018 33.9332 47.4667C33.8565 47.6553 33.8186 47.8542 33.8215 48.0542C33.8182 48.2574 33.856 48.4595 33.9332 48.6513C33.9998 48.8148 34.1026 48.9653 34.2359 49.0943C34.3608 49.2146 34.5155 49.3086 34.6885 49.3692C34.8664 49.4333 35.0575 49.4655 35.2501 49.4639C35.3614 49.4654 35.4727 49.4591 35.5828 49.445C35.7625 49.4259 35.935 49.3716 36.0872 49.2862C36.1635 49.2425 36.2355 49.1934 36.3025 49.1393C36.3306 49.1161 36.3674 49.1026 36.4062 49.1014Z" />
  <path d="M42.7043 48.0538C42.7077 48.3052 42.6578 48.5549 42.5571 48.7906C42.4682 49.0043 42.3283 49.1993 42.1464 49.3626C41.9645 49.526 41.7449 49.654 41.502 49.7382C40.9682 49.9151 40.3781 49.9151 39.8443 49.7382C39.6029 49.6527 39.3847 49.5244 39.2036 49.3615C39.0218 49.1952 38.8808 48.9985 38.7891 48.7835C38.5927 48.3063 38.5927 47.7847 38.7891 47.3076C38.8822 47.0923 39.023 46.8951 39.2036 46.7271C39.3862 46.5694 39.6043 46.446 39.8443 46.3647C40.3774 46.1846 40.9688 46.1846 41.502 46.3647C41.7442 46.4501 41.9633 46.5784 42.1454 46.7413C42.3249 46.906 42.4648 47.1001 42.5571 47.3123C42.6581 47.5495 42.708 47.8009 42.7043 48.0538ZM42.1318 48.0538C42.1361 47.8527 42.101 47.6524 42.0282 47.4615C41.9671 47.298 41.8677 47.1472 41.7364 47.0185C41.6086 46.8968 41.4512 46.8013 41.2757 46.739C40.8878 46.6094 40.4584 46.6094 40.0706 46.739C39.895 46.8013 39.7376 46.8968 39.6098 47.0185C39.4767 47.1464 39.3763 47.2974 39.3154 47.4615C39.1766 47.8472 39.1766 48.2604 39.3154 48.6461C39.3769 48.81 39.4772 48.9609 39.6098 49.0891C39.7378 49.2101 39.8952 49.3047 40.0706 49.3663C40.4591 49.4925 40.8871 49.4925 41.2757 49.3663C41.451 49.3047 41.6084 49.2101 41.7364 49.0891C41.8672 48.9601 41.9664 48.8094 42.0282 48.6461C42.1013 48.4552 42.1364 48.2549 42.1318 48.0538Z" />
  <path d="M47.0012 48.6748L47.0584 48.8074C47.0803 48.76 47.0993 48.7174 47.1212 48.6748C47.142 48.6302 47.1656 48.5867 47.192 48.5445L48.5853 46.3439C48.6125 46.306 48.6371 46.2823 48.6643 46.2752C48.7014 46.2654 48.7402 46.2614 48.7788 46.2634H49.1905V49.8426H48.7025V47.2109C48.7025 47.1777 48.7025 47.1398 48.7025 47.0995C48.6999 47.0585 48.6999 47.0174 48.7025 46.9764L47.3011 49.2077C47.2833 49.2412 47.2548 49.2694 47.2191 49.2892C47.1833 49.3089 47.1417 49.3193 47.0993 49.3191H47.0203C46.9778 49.3196 46.9361 49.3093 46.9003 49.2896C46.8644 49.2698 46.836 49.2413 46.8185 49.2077L45.3762 46.9622C45.3762 47.0048 45.3762 47.0474 45.3762 47.0901C45.3762 47.1327 45.3762 47.1706 45.3762 47.2038V49.8355H44.9045V46.2634H45.3162C45.3549 46.2614 45.3937 46.2654 45.4307 46.2752C45.4646 46.2898 45.4915 46.314 45.5071 46.3439L46.9303 48.5469C46.9583 48.5876 46.982 48.6304 47.0012 48.6748Z" />
  <path d="M52.2443 48.4969V49.8376H51.699V46.2632H52.915C53.1445 46.2594 53.3734 46.2858 53.5939 46.3414C53.7704 46.3849 53.934 46.4608 54.0737 46.5641C54.1948 46.6609 54.2882 46.7809 54.3464 46.9146C54.4107 47.0604 54.4422 47.2157 54.4391 47.3718C54.4415 47.5285 54.4072 47.6841 54.3382 47.829C54.2726 47.9661 54.1719 48.0884 54.0437 48.1866C53.9038 48.2942 53.7394 48.3749 53.5612 48.4235C53.3489 48.4824 53.1269 48.5104 52.9041 48.5064L52.2443 48.4969ZM52.2443 48.1132H52.9041C53.0474 48.1148 53.1901 48.0964 53.3267 48.0587C53.4394 48.0258 53.5432 47.9734 53.632 47.9048C53.714 47.8392 53.7774 47.7582 53.8174 47.6679C53.8621 47.5724 53.8843 47.4701 53.8829 47.3671C53.8892 47.2677 53.8706 47.1683 53.8282 47.0759C53.7858 46.9834 53.7207 46.9001 53.6375 46.8317C53.4292 46.6904 53.1676 46.622 52.9041 46.6399H52.2443V48.1132Z" />
  <path d="M59.5731 49.8424H59.1423C59.0991 49.8439 59.0566 49.8322 59.0223 49.8093C58.9914 49.787 58.9671 49.7585 58.9514 49.7264L58.5806 48.8617H56.7185L56.334 49.7264C56.3199 49.758 56.2964 49.7858 56.2659 49.8069C56.2312 49.8312 56.1877 49.8438 56.1432 49.8424H55.7124L57.3483 46.2629H57.9154L59.5731 49.8424ZM56.8739 48.5134H58.4116L57.7627 47.0565C57.7131 46.9469 57.6721 46.8345 57.64 46.7201L57.5773 46.9072C57.5582 46.9641 57.5364 47.0162 57.5173 47.0589L56.8739 48.5134Z" />
  <path d="M61.9287 46.2795C61.9613 46.2951 61.9893 46.317 62.0105 46.3435L64.3961 49.0418C64.3961 48.9991 64.3961 48.9565 64.3961 48.9162C64.3961 48.8759 64.3961 48.8357 64.3961 48.7978V46.263H64.8842V49.8425H64.6115C64.5728 49.8435 64.5344 49.8362 64.4997 49.8212C64.466 49.8041 64.4364 49.7816 64.4125 49.7548L62.0295 47.0589C62.0322 47.1 62.0322 47.1411 62.0295 47.1821C62.0295 47.2224 62.0295 47.2579 62.0295 47.2911V49.8425H61.5415V46.263H61.8305C61.8642 46.2621 61.8977 46.2678 61.9287 46.2795Z" />
  <path d="M68.9029 48.4188V49.8402H68.3576V48.4188L66.8499 46.2631H67.3379C67.3799 46.2609 67.4215 46.2718 67.4551 46.2939C67.4848 46.3168 67.5097 46.3441 67.5288 46.3744L68.4721 47.765C68.5103 47.8242 68.543 47.8787 68.5703 47.9308C68.5975 47.9829 68.6193 48.0327 68.6384 48.0824L68.7093 47.9285C68.7358 47.8722 68.7668 47.8175 68.802 47.765L69.7318 46.3649C69.7513 46.337 69.7752 46.3115 69.8026 46.2891C69.835 46.2646 69.877 46.2519 69.9199 46.2536H70.4134L68.9029 48.4188Z" fill="#AFB1B8" />
  <path d="M46.7312 40.2561C46.9684 40.2822 47.2083 40.3035 47.451 40.3225C51.1298 38.8926 54.242 36.5523 56.3985 33.5942C58.5549 30.636 59.66 27.1912 59.5756 23.6904L55.5214 20.1678C56.3457 23.8951 55.9601 27.7482 54.4077 31.2959C52.8553 34.8437 50.1973 37.9461 46.7312 40.2561Z" fill="#AFB1B8" />
  <path d="M45.2834 40.0923L45.3925 40.1112C49.0964 37.8094 51.9203 34.5951 53.499 30.8839C55.0777 27.1727 55.3387 23.1353 54.2481 19.2939L48.4734 14.2767C50.8091 18.4008 51.7493 23.0162 51.1846 27.5862C50.6199 32.1562 48.5735 36.493 45.2834 40.0923Z" fill="#AFB1B8" />
  <path d="M64.8677 27.8266C63.8866 31.6732 61.5039 35.1423 58.0734 37.7189C57.0715 38.4756 55.9908 39.1497 54.8452 39.7325C57.6387 39.0191 60.2063 37.7578 62.35 36.046C64.4938 34.3342 66.1564 32.2175 67.2098 29.8591L64.8677 27.8266Z" />
  <path d="M63.949 27.2602L60.6146 24.363C60.5508 27.6661 59.47 30.8941 57.4845 33.7115C55.499 36.5288 52.6813 38.8328 49.3242 40.3838H49.3406C50.0887 40.3836 50.8362 40.3448 51.579 40.2677C54.7164 39.1551 57.488 37.385 59.6464 35.1153C61.8049 32.8456 63.283 30.147 63.949 27.2602Z" fill="#AFB1B8" />
  <path d="M45.7662 12.161L41.7882 8.7C38.2321 9.89396 35.1737 11.9929 33.0133 14.7221C30.8528 17.4513 29.691 20.6836 29.6799 23.996V23.996C29.6933 27.656 31.1111 31.2077 33.7092 34.0889C36.3072 36.97 39.9369 39.016 44.0239 39.9031C47.6724 36.041 49.8084 31.2688 50.1217 26.2798C50.4351 21.2908 48.9093 16.345 45.7662 12.161Z" fill="#AFB1B8" />
  <path d="M73.1399 26.7274C73.1255 22.3849 71.1336 18.2238 67.5995 15.1532C64.0653 12.0826 59.2761 10.352 54.2781 10.3395C51.9686 10.3374 49.6787 10.7077 47.5247 11.4316L71.8802 32.5927C72.7142 30.7221 73.1413 28.7333 73.1399 26.7274Z" />
</svg>
